<svg xmlns="http://www.w3.org/2000/svg" width="138" height="260" viewBox="0 0 138 260">
  <rect width="138" height="260" fill="#b3a742"/>

  <!-- vertical bars -->
  <g fill="#a89d3d">
    <rect x="0"  y="0" width="10" height="260"/>
    <rect x="49" y="0" width="10" height="260"/>
  </g>

  <g fill="#9c9138">
    <!-- WIDE stripe: big UP arrow — long upper chevron + short lower chevron -->
    <path d="M98.5 20 L127.5 56.75 L127.5 116.5 L98.5 82.5 L69.5 116.5 L69.5 56.75 Z"/>
    <path d="M98.5 98 L127.5 134.75 L127.5 160.5 L98.5 126.5 L69.5 160.5 L69.5 134.75 Z"/>

    <!-- NARROW stripe: small DOWN double-chevrons, stacked tight -->
    <path d="M29.5 49 L19.4 36.2 L19.4 15.3 L29.5 27.2 L39.6 15.3 L39.6 36.2 Z"/>
    <path d="M29.5 21.8 L19.4 9 L19.4 0 L29.5 11.9 L39.6 0 L39.6 9 Z"/>
    <path d="M29.5 101 L19.4 88.2 L19.4 67.3 L29.5 79.2 L39.6 67.3 L39.6 88.2 Z"/>
    <path d="M29.5 73.8 L19.4 61 L19.4 52 L29.5 63.9 L39.6 52 L39.6 61 Z"/>
    <path d="M29.5 153 L19.4 140.2 L19.4 119.3 L29.5 131.2 L39.6 119.3 L39.6 140.2 Z"/>
    <path d="M29.5 125.8 L19.4 113 L19.4 104 L29.5 115.9 L39.6 104 L39.6 113 Z"/>
    <path d="M29.5 205 L19.4 192.2 L19.4 171.3 L29.5 183.2 L39.6 171.3 L39.6 192.2 Z"/>
    <path d="M29.5 177.8 L19.4 165 L19.4 156 L29.5 167.9 L39.6 156 L39.6 165 Z"/>
    <path d="M29.5 257 L19.4 244.2 L19.4 223.3 L29.5 235.2 L39.6 223.3 L39.6 244.2 Z"/>
    <path d="M29.5 229.8 L19.4 217 L19.4 208 L29.5 219.9 L39.6 208 L39.6 217 Z"/>
  </g>
</svg>
