# Blender 4.1.1
# www.blender.org
mtllib wall_column.mtl
o wall_column
v 0.000000 0.000000 0.000000
v 0.000000 1.999999 0.000000
v -0.378159 1.999999 0.000000
v -0.378159 0.000000 0.000000
v -0.378159 0.000000 -0.378159
v -0.378159 1.999999 -0.378159
v -0.000000 0.000000 -0.378159
v -0.000000 1.999999 -0.378159
v -0.000000 0.666755 0.000000
v -0.378159 0.666755 0.000000
v -0.378159 0.666755 -0.378159
v -0.000000 0.666755 -0.378159
v 0.000000 1.934276 0.000000
v -0.378159 1.934276 0.000000
v -0.378159 1.934276 -0.378159
v -0.000000 1.934276 -0.378159
vn 1.0000 -0.0000 -0.0000
vn -0.0000 -1.0000 -0.0000
vn -0.0000 -0.0000 1.0000
vn -1.0000 -0.0000 -0.0000
vn -0.0000 -0.0000 -1.0000
vn -0.0000 1.0000 -0.0000
vt 0.346361 0.396844
vt 0.346361 0.434491
vt 0.339818 0.434491
vt 0.339818 0.396844
vt 0.319733 0.413847
vt 0.319733 0.440525
vt 0.293056 0.440525
vt 0.293056 0.413847
vt 0.346315 0.434532
vt 0.339772 0.434532
vt 0.339772 0.396884
vt 0.346315 0.396884
vt 0.346285 0.434532
vt 0.339742 0.434532
vt 0.339742 0.396884
vt 0.346285 0.396884
vt 0.346291 0.434532
vt 0.339748 0.434532
vt 0.339748 0.396884
vt 0.346291 0.396884
vt 0.343854 0.418080
vt 0.341341 0.418080
vt 0.341341 0.415567
vt 0.343854 0.415567
vt 0.286936 0.461628
vt 0.286936 0.399449
vt 0.322202 0.399449
vt 0.322202 0.461628
vt 0.286936 0.461627
vt 0.286936 0.399448
vt 0.322202 0.399448
vt 0.322202 0.461627
vt 0.286936 0.461628
vt 0.286936 0.399449
vt 0.322202 0.399449
vt 0.322202 0.461628
vt 0.322202 0.461628
vt 0.286936 0.461628
vt 0.286936 0.399449
vt 0.322202 0.399449
vt 0.441478 0.497476
vt 0.432981 0.497476
vt 0.432514 0.496411
vt 0.441478 0.494942
vt 0.439967 0.496611
vt 0.431759 0.495978
vt 0.431471 0.494077
vt 0.439967 0.494077
vt 0.440544 0.497880
vt 0.432047 0.496612
vt 0.440544 0.495346
vt 0.440544 0.495346
vt 0.440544 0.497880
s 0
usemtl Material
f 13/1/1 16/2/1 8/3/1 2/4/1
f 7/5/2 1/6/2 4/7/2 5/8/2
f 13/9/3 2/10/3 3/11/3 14/12/3
f 14/13/4 3/14/4 6/15/4 15/16/4
f 15/17/5 6/18/5 8/19/5 16/20/5
f 2/21/6 8/22/6 6/23/6 3/24/6
f 5/25/5 11/26/5 12/27/5 7/28/5
f 4/29/4 10/30/4 11/31/4 5/32/4
f 1/33/3 9/34/3 10/35/3 4/36/3
f 1/37/1 7/38/1 12/39/1 9/40/1
f 11/41/5 15/42/5 16/43/5 12/44/5
f 10/45/4 14/46/4 15/47/4 11/48/4
f 9/49/3 13/50/3 14/46/3 10/51/3
f 9/52/1 12/53/1 16/43/1 13/50/1
