# Blender 4.1.1
# www.blender.org
mtllib wall_collumn_base..mtl
o wall_column_base
v 0.000000 -0.181571 0.000000
v -0.378159 -0.181571 0.000000
v -0.378159 -0.181571 -0.378159
v -0.000000 -0.181571 -0.378159
v -0.000000 0.000000 0.000000
v -0.378159 0.000000 0.000000
v -0.378159 0.000000 -0.378159
v -0.000000 0.000000 -0.378159
vn -0.0000 -1.0000 -0.0000
vn -0.0000 -0.0000 -1.0000
vn -1.0000 -0.0000 -0.0000
vn -0.0000 -0.0000 1.0000
vn 1.0000 -0.0000 -0.0000
vn -0.0000 1.0000 -0.0000
vt 0.319733 0.413847
vt 0.319733 0.440525
vt 0.293056 0.440525
vt 0.293056 0.413847
vt 0.286936 0.461628
vt 0.286936 0.399449
vt 0.322202 0.399449
vt 0.322202 0.461628
vt 0.286936 0.461627
vt 0.286936 0.399448
vt 0.322202 0.399448
vt 0.322202 0.461627
vt 0.286936 0.461628
vt 0.286936 0.399449
vt 0.322202 0.399449
vt 0.322202 0.461628
vt 0.322202 0.461628
vt 0.286936 0.461628
vt 0.286936 0.399449
vt 0.322202 0.399449
s 0
usemtl Material
f 4/1/1 1/2/1 2/3/1 3/4/1
f 3/5/2 7/6/2 8/7/2 4/8/2
f 2/9/3 6/10/3 7/11/3 3/12/3
f 1/13/4 5/14/4 6/15/4 2/16/4
f 1/17/5 4/18/5 8/19/5 5/20/5
f 7/11/6 6/10/6 5/14/6 8/19/6
